{
	"asset":{
		"generator":"Khronos glTF Blender I/O v4.0.44",
		"version":"2.0"
	},
	"scene":0,
	"scenes":[
		{
			"name":"Scene",
			"nodes":[
				4
			]
		}
	],
	"nodes":[
		{
			"mesh":0,
			"name":"Object_4",
			"rotation":[
				0.006171118933707476,
				-0.962321937084198,
				0.2717225253582001,
				0.00808007176965475
			],
			"translation":[
				0.10889116674661636,
				-0.6776309013366699,
				0.35656750202178955
			]
		},
		{
			"children":[
				0
			],
			"name":"cap_0"
		},
		{
			"children":[
				1
			],
			"name":"GLTF_SceneRootNode",
			"rotation":[
				0.70710688829422,
				0,
				0,
				0.7071066498756409
			]
		},
		{
			"children":[
				2
			],
			"name":"root"
		},
		{
			"children":[
				3
			],
			"name":"Sketchfab_model",
			"rotation":[
				-0.70710688829422,
				0,
				0,
				0.7071066498756409
			]
		}
	],
	"materials":[
		{
			"doubleSided":true,
			"name":"Material.001",
			"normalTexture":{
				"index":0
			},
			"pbrMetallicRoughness":{
				"baseColorTexture":{
					"index":1
				},
				"metallicFactor":0,
				"roughnessFactor":0.5
			}
		}
	],
	"meshes":[
		{
			"name":"Object_0",
			"primitives":[
				{
					"attributes":{
						"POSITION":0,
						"NORMAL":1,
						"TEXCOORD_0":2,
						"TEXCOORD_1":3
					},
					"indices":4,
					"material":0
				}
			]
		}
	],
	"textures":[
		{
			"sampler":0,
			"source":0
		},
		{
			"sampler":0,
			"source":1
		}
	],
	"images":[
		{
			"mimeType":"image/png",
			"name":"Material.001_normal",
			"uri":"Material_001_normal.png"
		},
		{
			"mimeType":"image/png",
			"name":"Material.001_baseColor",
			"uri":"Material_001_baseColor.png"
		}
	],
	"accessors":[
		{
			"bufferView":0,
			"componentType":5126,
			"count":923,
			"max":[
				0.774836003780365,
				1.4659380912780762,
				1.1026493310928345
			],
			"min":[
				-0.7748361229896545,
				0.03180718421936035,
				-1.4551410675048828
			],
			"type":"VEC3"
		},
		{
			"bufferView":1,
			"componentType":5126,
			"count":923,
			"type":"VEC3"
		},
		{
			"bufferView":2,
			"componentType":5126,
			"count":923,
			"type":"VEC2"
		},
		{
			"bufferView":3,
			"componentType":5126,
			"count":923,
			"type":"VEC2"
		},
		{
			"bufferView":4,
			"componentType":5123,
			"count":4101,
			"type":"SCALAR"
		}
	],
	"bufferViews":[
		{
			"buffer":0,
			"byteLength":11076,
			"byteOffset":0,
			"target":34962
		},
		{
			"buffer":0,
			"byteLength":11076,
			"byteOffset":11076,
			"target":34962
		},
		{
			"buffer":0,
			"byteLength":7384,
			"byteOffset":22152,
			"target":34962
		},
		{
			"buffer":0,
			"byteLength":7384,
			"byteOffset":29536,
			"target":34962
		},
		{
			"buffer":0,
			"byteLength":8202,
			"byteOffset":36920,
			"target":34963
		}
	],
	"samplers":[
		{
			"magFilter":9729,
			"minFilter":9987
		}
	],
	"buffers":[
		{
			"byteLength":45124,
			"uri":"newscene.bin"
		}
	]
}
